<svg id="Layer_2" data-name="Layer 2" xmlns="http://www.w3.org/2000/svg" viewBox="0 0 100 78.28947">
  <defs>
    <style>
      .cls-1 {
        fill: #f2f5ed;
      }

      .cls-1, .cls-2, .cls-3, .cls-4, .cls-5, .cls-6, .cls-7 {
        stroke: #404040;
        stroke-linecap: round;
        stroke-linejoin: round;
      }

      .cls-1, .cls-2, .cls-3 {
        stroke-width: 4px;
      }

      .cls-2, .cls-6 {
        fill: none;
      }

      .cls-3, .cls-5 {
        fill: #ffc200;
      }

      .cls-4 {
        fill: #ff5b00;
      }

      .cls-6, .cls-7 {
        stroke-width: 0.5px;
      }

      .cls-7 {
        fill: #b80028;
      }

      .cls-8 {
        fill: #404040;
      }
    </style>
  </defs>
  <title>mych</title>
  <g>
    <path class="cls-1" d="M27.26316,14.64989H5.53684A3.53684,3.53684,0,0,0,2,18.18673V58.10252A3.03158,3.03158,0,0,0,5.03158,61.1341h0a3.03157,3.03157,0,0,1,3.03158,3.03157V76.292L28.45,61.8094a3.03151,3.03151,0,0,1,1.90746-.6753H61.62106a3.03158,3.03158,0,0,0,3.03157-3.03158V14.64989H39.38947" transform="translate(0 -0.00252)"/>
    <line class="cls-2" x1="11.6" y1="34.01579" x2="55.05263" y2="34.01579"/>
    <line class="cls-2" x1="11.6" y1="25.25789" x2="55.05263" y2="25.25789"/>
    <line class="cls-2" x1="11.6" y1="42.77368" x2="55.05263" y2="42.77368"/>
    <line class="cls-2" x1="11.6" y1="51.53158" x2="29.78947" y2="51.53158"/>
  </g>
  <g>
    <path class="cls-3" d="M34.33684,7.07094v38.4a3.53684,3.53684,0,0,0,3.53684,3.53684H67.37887a3.53685,3.53685,0,0,1,2.31175.86008L85.07773,65.17778A3.53684,3.53684,0,0,0,90.92632,62.501v-9.9564a3.53684,3.53684,0,0,1,3.53683-3.53684h0A3.53684,3.53684,0,0,0,98,45.47094v-38.4A3.53684,3.53684,0,0,0,94.46316,3.5341H37.87368A3.53684,3.53684,0,0,0,34.33684,7.07094Z" transform="translate(0 -0.00252)"/>
    <line class="cls-2" x1="41.91579" y1="32.33158" x2="90.42105" y2="32.33158"/>
    <line class="cls-2" x1="48.98947" y1="39.40526" x2="83.34737" y2="39.40526"/>
  </g>
  <path class="cls-4" d="M68.94737,12.12357c0,6.41813-10.10526,21.72632-11.62105,21.72632S45.70526,18.5417,45.70526,12.12357a11.62106,11.62106,0,0,1,23.24211,0Z" transform="translate(0 -0.00252)"/>
  <g>
    <circle class="cls-5" cx="57.32081" cy="11.61579" r="4.04211"/>
    <g>
      <path class="cls-6" d="M56.45306,10.87924s-.01585-.72917-.57065-.72917-.57065.72917-.57065.72917" transform="translate(0 -0.00252)"/>
      <path class="cls-6" d="M59.32987,10.87924s-.01585-.72917-.57065-.72917-.57065.72917-.57065.72917" transform="translate(0 -0.00252)"/>
    </g>
    <g>
      <path class="cls-6" d="M55.36944,12.33756a1.98642,1.98642,0,0,0,3.89174,0" transform="translate(0 -0.00252)"/>
      <path class="cls-7" d="M55.51521,12.72832c-.69732.24542-1.09231.46819-1.20727.8065a1.17376,1.17376,0,0,0,1.25514,1.34858c.34582-.09042.59648-.46863.89142-1.14727l.00321-.0111A2.05465,2.05465,0,0,1,55.51521,12.72832Z" transform="translate(0 -0.00252)"/>
      <path class="cls-8" d="M56.02906,13.44752a.84263.84263,0,0,1-.27571.444.30941.30941,0,0,1-.43022-.01188.316.316,0,0,1,.01192-.43508.84264.84264,0,0,1,.46127-.24573" transform="translate(0 -0.00252)"/>
    </g>
  </g>
</svg>
